<svg viewBox="0 0 1000 1000" xmlns="http://www.w3.org/2000/svg" width="180" height="180">
  <rect x="270" y="270" width="460" height="460" rx="60" fill="#ffffff" />
  <rect x="340" y="190" width="60" height="80" fill="#ffffff" />
  <rect x="480" y="190" width="60" height="80" fill="#ffffff" />
  <rect x="620" y="190" width="60" height="80" fill="#ffffff" />
  <rect x="340" y="730" width="60" height="80" fill="#ffffff" />
  <rect x="480" y="730" width="60" height="80" fill="#ffffff" />
  <rect x="620" y="730" width="60" height="80" fill="#ffffff" />
  <rect x="190" y="340" width="80" height="60" fill="#ffffff" />
  <rect x="190" y="480" width="80" height="60" fill="#ffffff" />
  <rect x="190" y="620" width="80" height="60" fill="#ffffff" />
  <rect x="730" y="340" width="80" height="60" fill="#ffffff" />
  <rect x="730" y="480" width="80" height="60" fill="#ffffff" />
  <rect x="730" y="620" width="80" height="60" fill="#ffffff" />
  <rect x="330" y="330" width="340" height="340" rx="40" fill="#111827" />
  <rect x="480" y="190" width="60" height="80" fill="#22d3ee" />
  <rect x="190" y="480" width="80" height="60" fill="#22d3ee" />
  <rect x="730" y="340" width="80" height="60" fill="#22d3ee" />
  <rect x="730" y="480" width="80" height="60" fill="#22d3ee" />
  <rect x="480" y="730" width="60" height="80" fill="#22d3ee" />
  <circle cx="370" cy="210" r="20" fill="#f87171" />
  <circle cx="650" cy="210" r="20" fill="#f87171" />
  <circle cx="790" cy="650" r="20" fill="#f87171" />
  <circle cx="650" cy="790" r="20" fill="#f87171" />
  <g stroke-width="70" stroke-linecap="square" fill="none">
    <line x1="620" y1="380" x2="380" y2="620" stroke="#ffffff" />
    <line x1="380" y1="380" x2="500" y2="500" stroke="#ffffff" />
    <line x1="500" y1="500" x2="620" y2="620" stroke="#22d3ee" />
  </g>
</svg>
